# xmcd CD database file
#
# Track frame offsets:
#	150
#	30480
#	53272
#	70477
#	90057
#	114727
#	133480
#	156670
#	185422
#	208387
#	231477
#
# Disc length: 3417 seconds
#
# Revision: 0
# Processed by: cddbd v1.5.1PL0 Copyright (c) Steve Scherf et al.
# Submitted via: CDex 1.51
#
DISCID=9f0d570b
DTITLE=erdmann 2000 - recovering from y2k
DYEAR=2000
DGENRE=Jazz
TTITLE0=Sein AKG
TTITLE1=The Dessert Story
TTITLE2=Naf Naf Naf
TTITLE3=Vater und Mutter Erde
TTITLE4=Namderyew, ed!
TTITLE5=Drugstore B.
TTITLE6=Morgengrauen im Hafen von Piräus
TTITLE7=Gunn 2001
TTITLE8=Miss Mayenne
TTITLE9=3/4 3 and 1/4 8
TTITLE10=Ein Tag im Leben des jungen L.
EXTD=YEAR: 2000
EXTT0=
EXTT1=
EXTT2=
EXTT3=
EXTT4=
EXTT5=
EXTT6=
EXTT7=
EXTT8=
EXTT9=
EXTT10=
PLAYORDER=
